<?xml version="1.0" standalone="no"?>
<!DOCTYPE svg PUBLIC "-//W3C//DTD SVG 20010904//EN"
 "http://www.w3.org/TR/2001/REC-SVG-20010904/DTD/svg10.dtd">
<svg version="1.0" xmlns="http://www.w3.org/2000/svg"
 width="100.000000pt" height="800.000000pt" viewBox="0 0 800.000000 800.000000"
 preserveAspectRatio="xMidYMid meet">

<g transform="translate(0.000000,800.000000) scale(0.100000,-0.100000)"
fill="#000000" stroke="black" stroke-width = "400">
<path d="M3965 6829 c-426 -40 -849 -181 -1218 -405 -435 -265 -816 -677
-1047 -1132 -485 -954 -399 -2088 226 -2954 36 -50 68 -97 70 -102 2 -6 -234
-250 -526 -541 l-531 -530 1693 -3 c1174 -2 1733 0 1823 8 1134 96 2087 836
2458 1907 174 503 201 1066 77 1583 -311 1290 -1462 2190 -2785 2179 -82 -1
-190 -5 -240 -10z m630 -93 c314 -47 554 -119 820 -245 426 -203 816 -537
1087 -931 347 -504 522 -1133 480 -1722 -50 -688 -308 -1274 -776 -1756 -471
-485 -1081 -775 -1751 -832 -75 -6 -722 -10 -1725 -10 l-1605 0 494 494 494
494 -40 49 c-103 123 -222 312 -313 494 -299 595 -370 1291 -200 1934 52 195
113 354 210 544 406 800 1182 1356 2065 1481 77 11 160 22 185 24 94 8 479 -4
575 -18z"/>
</g>
</svg>
