<?xml version="1.0" standalone="no"?>
<!DOCTYPE svg PUBLIC "-//W3C//DTD SVG 20010904//EN"
 "http://www.w3.org/TR/2001/REC-SVG-20010904/DTD/svg10.dtd">
<svg version="1.0" xmlns="http://www.w3.org/2000/svg"
 width="512.000000pt" height="512.000000pt" viewBox="0 0 512.000000 512.000000"
 preserveAspectRatio="xMidYMid meet">

<g transform="translate(0.000000,512.000000) scale(0.100000,-0.100000)"
fill="#000000" stroke="black" stroke-width = "100">
<path d="M1095 4755 c-128 -21 -271 -68 -388 -128 -360 -184 -595 -517 -679
-962 -31 -169 -32 -495 0 -665 72 -393 250 -782 537 -1175 404 -553 1103
-1177 1829 -1634 168 -106 164 -106 332 0 725 456 1427 1083 1829 1634 293
401 475 805 542 1201 27 160 24 476 -6 638 -93 515 -404 890 -863 1040 -440
144 -920 42 -1288 -275 -131 -112 -276 -306 -345 -461 -16 -37 -32 -67 -35
-67 -3 0 -27 46 -54 101 -188 382 -551 661 -969 744 -116 22 -331 27 -442 9z
m408 -221 c221 -42 425 -154 593 -326 175 -179 290 -398 349 -659 22 -104 68
-149 135 -134 50 11 76 52 104 165 66 267 181 476 358 648 336 329 821 418
1234 227 545 -251 769 -940 543 -1670 -207 -668 -801 -1387 -1714 -2072 -162
-122 -530 -373 -545 -373 -13 0 -356 232 -495 335 -775 573 -1333 1179 -1620
1759 -203 409 -269 777 -210 1161 72 464 355 802 770 920 164 46 320 52 498
19z"/>
</g>
</svg>
